<?xml version="1.0" encoding="UTF-8"?>
<svg version="1.1" xmlns="http://www.w3.org/2000/svg" width="412" height="198">
<path d="M0 0 C4.20934535 6.31401802 4.27967756 14.58854456 4 22 C1 21 1 21 -0.32421875 18.5234375 C-0.77410156 17.48445313 -1.22398438 16.44546875 -1.6875 15.375 C-5.99925613 6.45485587 -11.39755869 2.14791842 -20.60546875 -1.2734375 C-33.00103594 -5.03457208 -46.10564017 -3.62473228 -57.625 2.125 C-66.02123174 7.15070143 -71.86813236 14.21718587 -76 23 C-71.91589234 24.13549545 -67.96635111 24.15299311 -63.75390625 24.17578125 C-62.09438876 24.1990083 -60.43488355 24.22312674 -58.77539062 24.24804688 C-56.18229283 24.2828879 -53.58963929 24.31235799 -50.99633789 24.32592773 C-26.70885789 24.47759324 -26.70885789 24.47759324 -17.5 31.1875 C-13.76534221 35.38899001 -10 40.21433857 -10 46 C-1.09 46 7.82 46 17 46 C17 46.99 17 47.98 17 49 C14.36 49.33 11.72 49.66 9 50 C8.92487187 54.47994839 8.87094531 58.95954625 8.83520508 63.43994141 C8.82027888 64.95856121 8.79993041 66.47713917 8.77368164 67.99560547 C8.54042425 81.85383875 9.32315003 96.07863628 19.25 106.75 C28.26691667 115.20817611 38.57473672 116.30804561 50.4375 116.125 C52.1071582 116.11146484 52.1071582 116.11146484 53.81054688 116.09765625 C56.54059023 116.0742224 59.2701801 116.041414 62 116 C62 116.99 62 117.98 62 119 C46.54915125 122.46099012 31.43001575 124.45669217 17.0625 115.8125 C7.15054078 108.85520704 2.34678531 100.07348476 -2 89 C-2.804375 89.5775 -3.60875 90.155 -4.4375 90.75 C-8.37079879 93.39106393 -12.64160476 95.17915932 -17 97 C-15.33928169 101.1467633 -12.34042562 104.06751777 -9.3125 107.25 C-8.21006453 108.42365978 -7.10849582 109.59813435 -6.0078125 110.7734375 C-5.4809082 111.33514648 -4.95400391 111.89685547 -4.41113281 112.47558594 C-2.78417668 114.23314893 -1.22934497 116.0425455 0.3125 117.875 C13.2557532 132.74395672 27.52878091 148.59835351 48.1875 150.625 C49.445625 150.74875 50.70375 150.8725 52 151 C52.33 151.66 52.66 152.32 53 153 C44.77758301 156.80779827 35.12768505 155.69557518 26.671875 153.01953125 C9.00393021 146.27781547 -3.33807803 131.00507716 -15.4375 117.0625 C-15.97246094 116.464375 -16.50742188 115.86625 -17.05859375 115.25 C-18.16966782 113.96231658 -19.26555737 112.66027618 -20.31298828 111.3203125 C-26.70324894 102.7829724 -26.70324894 102.7829724 -35.82421875 97.984375 C-39.67058227 97.76454448 -39.67058227 97.76454448 -43.453125 97.9296875 C-48.35583696 98.02687783 -52.45097231 96.70187153 -57 95 C-56.75056641 96.27230469 -56.75056641 96.27230469 -56.49609375 97.5703125 C-55.98775554 101.08465068 -55.97167 104.328681 -56.0625 107.875 C-56.17341082 115.66360652 -56.17341082 115.66360652 -54 123 C-51.43964381 124.5309885 -48.90149864 125.35222356 -46 126 C-46 126.66 -46 127.32 -46 128 C-56.23 128 -66.46 128 -77 128 C-76 126 -76 126 -73.0625 124.5625 C-69.78256825 123.20367158 -69.78256825 123.20367158 -68 120 C-67.432419 115.82853845 -67.33108296 111.6575278 -67.24487305 107.45068359 C-67.20689769 106.07678377 -67.14569007 104.70331258 -67.06030273 103.33154297 C-66.47524228 94.64237424 -66.47524228 94.64237424 -70.35253906 87.21459961 C-73.20986037 84.84293062 -73.20986037 84.84293062 -76.19506836 82.93481445 C-85.10914241 76.78597323 -89.44709239 66.16761481 -92 56 C-94.56363476 40.68565554 -92.12370905 26.10108069 -83.25 13.3125 C-74.26575313 1.61323347 -62.16224769 -5.70635302 -47.61328125 -8.56640625 C-30.90037163 -10.5719554 -14.5352685 -9.22569108 0 0 Z M-78 27 C-80.43896502 32.71359135 -80.33212891 38.14933627 -80.3125 44.25 C-80.32861328 45.23613281 -80.34472656 46.22226563 -80.36132812 47.23828125 C-80.36714989 56.07572368 -78.71950793 63.89067139 -74.0625 71.5 C-73.57910156 72.3146875 -73.09570312 73.129375 -72.59765625 73.96875 C-70.86591781 76.17047125 -69.50380181 76.84959588 -67 78 C-66.95055927 71.80697799 -66.91426095 65.61407091 -66.89013672 59.42089844 C-66.88007966 57.31410725 -66.86643232 55.20733001 -66.84912109 53.10058594 C-66.82486 50.07223059 -66.81351392 47.04405981 -66.8046875 44.015625 C-66.79436493 43.07382385 -66.78404236 42.13202271 -66.77340698 41.16168213 C-66.77325592 40.28107117 -66.77310486 39.40046021 -66.77294922 38.49316406 C-66.768508 37.72039124 -66.76406677 36.94761841 -66.75949097 36.15142822 C-67.03978121 33.64414472 -67.612343 32.10649926 -69 30 C-73.29750124 27.74859536 -73.29750124 27.74859536 -78 27 Z M-56 31 C-56.37374174 39.65569977 -56.67662982 48.31261644 -56.93634033 56.97241211 C-56.9995328 58.98511948 -57.07094302 60.99739604 -57.14404297 63.00976562 C-57.2735123 66.83978155 -57.36089224 70.66860411 -57.4375 74.5 C-57.48390625 75.69141602 -57.5303125 76.88283203 -57.578125 78.11035156 C-57.61750378 81.18816101 -57.59875434 83.98086236 -57 87 C-52.17122659 91.69973446 -46.07022068 92.89034926 -39.5 93.125 C-38.675 93.08375 -37.85 93.0425 -37 93 C-40.07686318 87.95394439 -43.74464257 84.07763949 -48 80 C-49.00228049 79.00228571 -50.00303488 78.0030257 -51 77 C-49.91460937 76.89042969 -48.82921875 76.78085938 -47.7109375 76.66796875 C-46.26555848 76.50841392 -44.82024949 76.34822389 -43.375 76.1875 C-42.66214844 76.11724609 -41.94929688 76.04699219 -41.21484375 75.97460938 C-33.86689824 75.13195507 -28.89556791 72.6943116 -24.2578125 66.87890625 C-20.113405 60.68803667 -20.08446377 52.71616564 -21.46484375 45.60546875 C-23.03462926 40.15301849 -25.45264072 35.51795707 -30 32 C-37.50311881 28.60464926 -48.19610783 28.89834737 -56 31 Z M-6 49 C-6.99 49.33 -7.98 49.66 -9 50 C-9.81831156 52.922764 -9.81831156 52.922764 -10.3125 56.4375 C-11.88049058 64.49089665 -14.68729007 70.41123091 -20.25 76.4375 C-24.27449339 78.72414397 -28.53391189 79.85529392 -33 81 C-31.59155282 84.21524305 -29.89655214 86.32183868 -27.375 88.75 C-26.74335937 89.36359375 -26.11171875 89.9771875 -25.4609375 90.609375 C-24.97882813 91.06828125 -24.49671875 91.5271875 -24 92 C-16.87544741 90.27191703 -7.15588927 87.77401226 -2.87817383 81.30297852 C-0.93380373 76.20393957 -1.97614915 70.24170642 -2.1875 64.875 C-2.21908203 63.57433594 -2.25066406 62.27367188 -2.28320312 60.93359375 C-2.32767578 59.69480469 -2.37214844 58.45601562 -2.41796875 57.1796875 C-2.47633911 55.47401611 -2.47633911 55.47401611 -2.53588867 53.73388672 C-2.68904541 52.8317041 -2.84220215 51.92952148 -3 51 C-3.99 50.34 -4.98 49.68 -6 49 Z " fill="#84B59E" transform="translate(103,33)"/>
<path d="M0 0 C4.20934535 6.31401802 4.27967756 14.58854456 4 22 C1 21 1 21 -0.32421875 18.5234375 C-0.77410156 17.48445313 -1.22398438 16.44546875 -1.6875 15.375 C-5.99925613 6.45485587 -11.39755869 2.14791842 -20.60546875 -1.2734375 C-33.00103594 -5.03457208 -46.10564017 -3.62473228 -57.625 2.125 C-66.87918312 7.6940352 -73.68039372 16.15232615 -78 26 C-79.28369381 32.03783891 -79.21807663 38.16326087 -79.25 44.3125 C-79.270625 45.29412109 -79.29125 46.27574219 -79.3125 47.28710938 C-79.35891153 56.05308666 -77.80820104 63.82260049 -73.0625 71.3125 C-72.54558594 72.14136719 -72.02867188 72.97023438 -71.49609375 73.82421875 C-69.96097509 76.15981306 -69.96097509 76.15981306 -67.625 78.625 C-65.21829911 82.14248592 -65.71537084 84.80171995 -66 89 C-73.87856667 87.8842099 -78.47382889 81.95854782 -83.1875 75.9375 C-91.70534798 63.66375055 -94.20477015 49.9236949 -92.3125 35.25 C-89.92131635 22.34073401 -83.67610564 11.00784725 -73.37890625 2.625 C-51.89431027 -12.05084881 -22.36853125 -14.1975471 0 0 Z " fill="#3E6050" transform="translate(103,33)"/>
<path d="M0 0 C8.91 0 17.82 0 27 0 C27 0.66 27 1.32 27 2 C24.36 2.33 21.72 2.66 19 3 C18.92487187 7.47994839 18.87094531 11.95954625 18.83520508 16.43994141 C18.82027888 17.95856121 18.79993041 19.47713917 18.77368164 20.99560547 C18.54042425 34.85383875 19.32315003 49.07863628 29.25 59.75 C38.26691667 68.20817611 48.57473672 69.30804561 60.4375 69.125 C62.1071582 69.11146484 62.1071582 69.11146484 63.81054688 69.09765625 C66.54059023 69.0742224 69.2701801 69.041414 72 69 C72 69.99 72 70.98 72 72 C56.54915125 75.46099012 41.43001575 77.45669217 27.0625 68.8125 C17.15054078 61.85520704 12.34678531 53.07348476 8 42 C7.21625 42.5775 6.4325 43.155 5.625 43.75 C1.41013032 46.52320404 -3.06810757 48.84293372 -8 50 C-11.125 48.75 -11.125 48.75 -13 47 C-12.67 46.01 -12.34 45.02 -12 44 C-9.5234375 42.7890625 -9.5234375 42.7890625 -6.375 41.625 C-4.21989687 40.82701471 -2.09484134 39.94492843 0 39 C0.64606201 38.75435303 1.29212402 38.50870605 1.95776367 38.25561523 C4.32545976 37.06923027 5.49905959 36.20392632 7 34 C7.67968541 29.59623308 7.52280247 25.33726163 7.21069336 20.9152832 C7.0622616 18.80911723 6.96313734 16.70509658 6.87304688 14.59570312 C7.00143346 7.70028937 7.00143346 7.70028937 4 2 C2.68 1.34 1.36 0.68 0 0 Z " fill="#2F5343" transform="translate(93,80)"/>
<path d="M0 0 C6.02875785 0.04454653 12.05650724 0.1147852 18.0847168 0.20751953 C20.12988197 0.23552006 22.17515115 0.25683716 24.22045898 0.27099609 C51.20627973 0.46888771 51.20627973 0.46888771 60.5 7.1875 C64.23465779 11.38899001 68 16.21433857 68 22 C76.91 22 85.82 22 95 22 C95 22.33 95 22.66 95 23 C83.615 23.495 83.615 23.495 72 24 C72 24.66 72 25.32 72 26 C71.01 26 70.02 26 69 26 C69.0825 26.928125 69.165 27.85625 69.25 28.8125 C69.21524931 37.39592102 64.95142813 45.96314467 59 52 C54.67373429 55.42911383 50.41755616 56.34989326 45 57 C44.505 57.99 44.505 57.99 44 59 C42.576875 58.505 42.576875 58.505 41.125 58 C38.22937548 56.89840809 38.22937548 56.89840809 36 57 C36 55.68 36 54.36 36 53 C33.03 53 30.06 53 27 53 C27 52.67 27 52.34 27 52 C28.08539063 51.89042969 29.17078125 51.78085938 30.2890625 51.66796875 C31.73444152 51.50841392 33.17975051 51.34822389 34.625 51.1875 C35.33785156 51.11724609 36.05070312 51.04699219 36.78515625 50.97460938 C42.90821404 50.27242385 47.28848932 48.71151068 51.75 44.25 C56.10640846 37.95741 56.7297077 31.4567006 56 24 C54.74760857 17.9141604 52.66136665 13.15469636 48 9 C39.72580415 5.96612819 30.68813239 6.86317902 22 7 C22 16.24 22 25.48 22 35 C21.67 35 21.34 35 21 35 C20.505 19.655 20.505 19.655 20 4 C19.34 4 18.68 4 18 4 C18 3.34 18 2.68 18 2 C12.555 2.495 12.555 2.495 7 3 C7 3.99 7 4.98 7 6 C4.64828869 5.40138258 2.3140622 4.73075648 0 4 C-0.33 3.34 -0.66 2.68 -1 2 C-0.67 1.34 -0.34 0.68 0 0 Z " fill="#8DB9A5" transform="translate(25,57)"/>
<path d="M0 0 C3.72857746 3.68077518 7.32777366 7.45713994 10.875 11.3125 C11.40891357 11.89080566 11.94282715 12.46911133 12.49291992 13.06494141 C15.15538071 15.95788145 17.77255078 18.87324183 20.3125 21.875 C33.2557532 36.74395672 47.52878091 52.59835351 68.1875 54.625 C69.445625 54.74875 70.70375 54.8725 72 55 C72.33 55.66 72.66 56.32 73 57 C64.77758301 60.80779827 55.12768505 59.69557518 46.671875 57.01953125 C28.31763706 50.01594046 15.52109412 33.7470727 3 19.25390625 C-1.89289697 13.73984071 -6.96839044 8.38722708 -12 3 C-11.01 2.67 -10.02 2.34 -9 2 C-8.67 2.99 -8.34 3.98 -8 5 C-7.01 5.33 -6.02 5.66 -5 6 C-4.01 6.66 -3.02 7.32 -2 8 C0.34973818 6.10244856 0.34973818 6.10244856 0.125 2.875 C0.08375 1.92625 0.0425 0.9775 0 0 Z " fill="#8AB6A2" transform="translate(83,129)"/>
<path d="M0 0 C4.20934535 6.31401802 4.27967756 14.58854456 4 22 C1 21 1 21 -0.32421875 18.5234375 C-0.77410156 17.48445313 -1.22398438 16.44546875 -1.6875 15.375 C-5.99925613 6.45485587 -11.39755869 2.14791842 -20.60546875 -1.2734375 C-33.00103594 -5.03457208 -46.10564017 -3.62473228 -57.625 2.125 C-63.51130684 5.59749756 -68.09287993 10.67861532 -72.5625 15.78515625 C-74 17 -74 17 -77.125 16.8125 C-78.07375 16.544375 -79.0225 16.27625 -80 16 C-80.33 15.34 -80.66 14.68 -81 14 C-81.33 14.66 -81.66 15.32 -82 16 C-82.66 16 -83.32 16 -84 16 C-79.08260662 5.3887827 -69.41516146 -0.84796186 -58.9375 -5.3125 C-39.91148226 -12.2175812 -17.26088591 -10.95566973 0 0 Z " fill="#546E63" transform="translate(103,33)"/>
<path d="M0 0 C0.33 0 0.66 0 1 0 C1.17015625 0.7734375 1.3403125 1.546875 1.515625 2.34375 C4.03374692 13.16631656 7.18741586 22.06330805 16.984375 28.25390625 C25.49511455 32.72369388 32.94032469 33.27154395 42.4375 33.125 C44.1071582 33.11146484 44.1071582 33.11146484 45.81054688 33.09765625 C48.54059023 33.0742224 51.2701801 33.041414 54 33 C54 33.99 54 34.98 54 36 C38.54915125 39.46099012 23.43001575 41.45669217 9.0625 32.8125 C0.10929347 26.52816414 -6.38885493 18.18818571 -8.8125 7.375 C-8.874375 6.59125 -8.93625 5.8075 -9 5 C-8.01 5.495 -8.01 5.495 -7 6 C-7 7.32 -7 8.64 -7 10 C-6.34 10 -5.68 10 -5 10 C-5 10.99 -5 11.98 -5 13 C-4.34 13 -3.68 13 -3 13 C-1.41744803 8.67435795 -0.54855348 4.571279 0 0 Z " fill="#4F6C5F" transform="translate(111,116)"/>
<path d="M0 0 C1.62418745 -0.08090971 3.24951745 -0.13914995 4.875 -0.1875 C5.77992187 -0.22230469 6.68484375 -0.25710937 7.6171875 -0.29296875 C8.79667969 -0.14794922 8.79667969 -0.14794922 10 0 C10.66 0.99 11.32 1.98 12 3 C12.99 3 13.98 3 15 3 C15.66 3.66 16.32 4.32 17 5 C17.721875 5.391875 18.44375 5.78375 19.1875 6.1875 C22.99745564 8.64280474 25.9193879 11.69825485 29 15 C29.928125 15.99 29.928125 15.99 30.875 17 C32.50050643 19.88978921 32.68610042 22.73544437 33 26 C31.02 26.99 31.02 26.99 29 28 C29 27.34 29 26.68 29 26 C28.01 25.67 27.02 25.34 26 25 C25.52385254 24.49275391 25.04770508 23.98550781 24.55712891 23.46289062 C21.81747353 20.88904067 17.95726113 21.54923573 14.375 21.5 C-1.00200638 20.99799362 -1.00200638 20.99799362 -5 17 C-5.04063832 15.33382885 -5.042721 13.66611905 -5 12 C-0.91418243 12.61287264 3.00092571 13.48492193 6.97265625 14.59765625 C9.34997692 15.06945592 11.5824345 15.06284832 14 15 C7.18331981 7.32588821 7.18331981 7.32588821 0 0 Z " fill="#8BB4A1" transform="translate(51,110)"/>
<path d="M0 0 C-0.33 4.62 -0.66 9.24 -1 14 C0.65 13.34 2.3 12.68 4 12 C4.99 11.67 5.98 11.34 7 11 C7.33 11.99 7.66 12.98 8 14 C8 9.05 8 4.1 8 -1 C10.31 -0.67 12.62 -0.34 15 0 C14.67 0.66 14.34 1.32 14 2 C13.92966231 3.87379605 13.9156978 5.75001102 13.9375 7.625 C13.94652344 8.62789062 13.95554687 9.63078125 13.96484375 10.6640625 C13.97644531 11.43492188 13.98804688 12.20578125 14 13 C15.32 13 16.64 13 18 13 C18.33 12.34 18.66 11.68 19 11 C19.99 11.33 20.98 11.66 22 12 C24.18326108 7.72886302 26.31326082 3.49797113 28 -1 C31.20482878 0.05668975 31.979939 0.96429424 33.66796875 3.96875 C34.16941406 5.1340625 34.67085938 6.299375 35.1875 7.5 C35.69667969 8.6653125 36.20585937 9.830625 36.73046875 11.03125 C37.35888672 12.50078125 37.35888672 12.50078125 38 14 C38.495 14.99 38.495 14.99 39 16 C36.69 16.33 34.38 16.66 32 17 C31.505 15.515 31.505 15.515 31 14 C28.98491642 13.26676204 28.98491642 13.26676204 27 13 C26.34 14.32 25.68 15.64 25 17 C14.77 17 4.54 17 -6 17 C-7.18681726 13.43954823 -7.09689832 10.56191663 -7.0625 6.8125 C-7.05347656 5.54019531 -7.04445313 4.26789063 -7.03515625 2.95703125 C-7.02355469 1.98121094 -7.01195312 1.00539063 -7 0 C-3.98968256 -0.93423645 -3.13349732 -1.04449911 0 0 Z M28 7 C29 10 29 10 29 10 Z " fill="#6A6A6A" transform="translate(319,78)"/>
<path d="M0 0 C1.21236328 0.01353516 1.21236328 0.01353516 2.44921875 0.02734375 C3.37154297 0.04474609 3.37154297 0.04474609 4.3125 0.0625 C4.9725 1.3825 5.6325 2.7025 6.3125 4.0625 C5.3225 5.5475 5.3225 5.5475 4.3125 7.0625 C2.6625 5.7425 1.0125 4.4225 -0.6875 3.0625 C-2.71991727 3.70229849 -2.71991727 3.70229849 -4.6875 5.0625 C-5.9527614 8.66362861 -5.6267247 11.40995949 -4.6875 15.0625 C0.0642398 14.63052365 2.23250054 13.73480705 5.3125 10.0625 C5.6425 11.0525 5.9725 12.0425 6.3125 13.0625 C6.9725 13.3925 7.6325 13.7225 8.3125 14.0625 C7.8175 7.6275 7.8175 7.6275 7.3125 1.0625 C8.6325 0.7325 9.9525 0.4025 11.3125 0.0625 C12.3025 0.7225 13.2925 1.3825 14.3125 2.0625 C13.9825 4.0425 13.6525 6.0225 13.3125 8.0625 C15.2925 8.0625 17.2725 8.0625 19.3125 8.0625 C18.9825 5.7525 18.6525 3.4425 18.3125 1.0625 C21.3125 0.0625 21.3125 0.0625 24.3125 1.0625 C24.8075 8.9825 24.8075 8.9825 25.3125 17.0625 C23.0025 17.0625 20.6925 17.0625 18.3125 17.0625 C18.3125 15.0825 18.3125 13.1025 18.3125 11.0625 C15.8375 10.5675 15.8375 10.5675 13.3125 10.0625 C13.6425 12.3725 13.9725 14.6825 14.3125 17.0625 C11.52426345 18.0951802 10.4447726 18.10759293 7.5625 17.125 C6.44875 16.5990625 6.44875 16.5990625 5.3125 16.0625 C4.6525 16.7225 3.9925 17.3825 3.3125 18.0625 C-1.4569561 18.37525122 -5.4549749 18.55222065 -9.6875 16.0625 C-12.05455636 12.90642486 -12.15880989 9.91153073 -11.6875 6.0625 C-8.43472205 1.01508593 -5.85447195 -0.08484742 0 0 Z " fill="#3F3F3F" transform="translate(163.6875,76.9375)"/>
<path d="M0 0 C11.625 -0.25 11.625 -0.25 15 2 C15.43132515 6.05445642 15.30019361 7.54970958 13 11 C13.495 11.61875 13.99 12.2375 14.5 12.875 C16 15 16 15 16 17 C17.32 17.33 18.64 17.66 20 18 C19.67 13.05 19.34 8.1 19 3 C20.65 2.67 22.3 2.34 24 2 C26 4 26 4 26.1953125 7.4765625 C26.18201493 8.85950968 26.15816232 10.24238654 26.125 11.625 C26.11597656 12.33140625 26.10695312 13.0378125 26.09765625 13.765625 C26.07407603 15.51056098 26.03820461 17.25532295 26 19 C23.72975032 19.08097324 21.45867925 19.13917704 19.1875 19.1875 C17.29064453 19.23970703 17.29064453 19.23970703 15.35546875 19.29296875 C12 19 12 19 10.125 17.625 C8.87626337 15.82126931 7.89697183 14.00093716 7 12 C7 14.31 7 16.62 7 19 C4.69 19 2.38 19 0 19 C0 12.73 0 6.46 0 0 Z M6 2 C6 4.31 6 6.62 6 9 C6.99 9 7.98 9 9 9 C9.33 7.35 9.66 5.7 10 4 C8.68 3.34 7.36 2.68 6 2 Z " fill="#656565" transform="translate(125,75)"/>
<path d="M0 0 C2.58861097 2.13560405 3.71069819 3.63614862 4.41015625 6.93359375 C4.7003485 10.86979124 4.23258873 12.65111691 2 16 C-1.34601727 18.23067818 -3.12864357 18.70781366 -7.0625 18.40234375 C-10.48406426 17.6918173 -11.87433604 16.78993395 -14 14 C-14.64649822 10.55582366 -14.63632029 7.44530175 -14 4 C-10.17214268 -1.231405 -6.08416088 -1.71943677 0 0 Z " fill="#345648" transform="translate(228,77)"/>
<path d="M0 0 C8.71102129 0.04014296 16.43830582 2.80124393 24 7 C28.9017596 11.99562308 29.11306464 19.99176458 29.125 26.6875 C29.08375 27.780625 29.0425 28.87375 29 30 C26 29 26 29 24.67578125 26.5234375 C24.22589844 25.48445313 23.77601562 24.44546875 23.3125 23.375 C19.00074387 14.45485587 13.60244131 10.14791842 4.39453125 6.7265625 C1.94601472 5.98361948 -0.48346728 5.455926 -3 5 C-2.01 4.34 -1.02 3.68 0 3 C0 2.01 0 1.02 0 0 Z " fill="#4F6A60" transform="translate(78,25)"/>
<path d="M0 0 C1.45599609 0.00966797 1.45599609 0.00966797 2.94140625 0.01953125 C5.4375 0.1875 5.4375 0.1875 7.4375 1.1875 C8.0625 3.25 8.0625 3.25 8.4375 5.1875 C7.1175 5.1875 5.7975 5.1875 4.4375 5.1875 C4.4375 4.5275 4.4375 3.8675 4.4375 3.1875 C1.4675 3.1875 -1.5025 3.1875 -4.5625 3.1875 C-5.53091499 8.43435731 -5.53091499 8.43435731 -4.9375 13.625 C-3.03682396 15.78485914 -1.35850049 15.89318416 1.4375 16.1875 C1.6540625 15.2903125 1.6540625 15.2903125 1.875 14.375 C2.3247439 12.62599596 2.86642341 10.90072977 3.4375 9.1875 C5.0875 9.1875 6.7375 9.1875 8.4375 9.1875 C9.19394808 11.91071308 9.60781512 13.64558824 8.75 16.375 C7.10315308 18.64921717 6.11730529 19.31837396 3.4375 20.1875 C-1.06567153 20.51500338 -4.57729682 20.40150176 -8.5625 18.1875 C-11.21248169 15.72027567 -11.54008111 14.39300652 -11.9375 10.75 C-11.5407558 6.98093007 -10.85658672 5.16131612 -8.5625 2.1875 C-5.18127827 -0.06664782 -3.9560272 -0.05794447 0 0 Z " fill="#3C3C3C" transform="translate(291.5625,74.8125)"/>
<path d="M0 0 C0.66 0.33 1.32 0.66 2 1 C2.59765625 3.8359375 2.59765625 3.8359375 3.0625 7.375 C3.51516268 10.7493945 3.92283301 13.76849904 5 17 C1.86650268 18.04449911 1.01031744 17.93423645 -2 17 C-2.33 15.35 -2.66 13.7 -3 12 C-4.98 14.97 -4.98 14.97 -7 18 C-7.66 17.67 -8.32 17.34 -9 17 C-9 16.34 -9 15.68 -9 15 C-9.66 15 -10.32 15 -11 15 C-11.66 14.01 -12.32 13.02 -13 12 C-13 13.65 -13 15.3 -13 17 C-13.66 17.33 -14.32 17.66 -15 18 C-15.99 17.34 -16.98 16.68 -18 16 C-17.01 11.05 -16.02 6.1 -15 1 C-14.01 1 -13.02 1 -12 1 C-9 5.22222222 -9 5.22222222 -9 8 C-8.01 8.33 -7.02 8.66 -6 9 C-3.59927045 6.11912454 -1.52708963 3.43595166 0 0 Z " fill="#444444" transform="translate(208,77)"/>
<path d="M0 0 C0.54269531 0.40992187 1.08539063 0.81984375 1.64453125 1.2421875 C2.35996094 1.78101562 3.07539063 2.31984375 3.8125 2.875 C4.52019531 3.40867187 5.22789062 3.94234375 5.95703125 4.4921875 C7.60456297 5.70814781 9.29624211 6.86416141 11 8 C11 5.69 11 3.38 11 1 C12.98 1 14.96 1 17 1 C17 6.28 17 11.56 17 17 C16.01 17.33 15.02 17.66 14 18 C13.2575 17.236875 12.515 16.47375 11.75 15.6875 C9.5736677 13.5606298 7.47832204 11.7440044 5 10 C5 12.31 5 14.62 5 17 C1.86650268 18.04449911 1.01031744 17.93423645 -2 17 C-1.85978195 14.35375716 -1.71310224 11.70815422 -1.5625 9.0625 C-1.52318359 8.30775391 -1.48386719 7.55300781 -1.44335938 6.77539062 C-1.11328125 1.11328125 -1.11328125 1.11328125 0 0 Z " fill="#848485" transform="translate(235,77)"/>
<path d="M0 0 C2.38903715 1.91122972 3.37059876 2.80915555 4.1875 5.75 C4.01224425 9.0798592 3.78296106 11.69918636 2.125 14.625 C-3.08917991 17.65258834 -9.15619517 16.81055716 -14.8125 15.75 C-14.68681641 14.26886719 -14.68681641 14.26886719 -14.55859375 12.7578125 C-14.45675781 11.47648437 -14.35492188 10.19515625 -14.25 8.875 C-14.14558594 7.59882812 -14.04117188 6.32265625 -13.93359375 5.0078125 C-13.55566633 1.86356058 -13.55566633 1.86356058 -14.8125 -0.25 C-9.69022447 -1.49176376 -4.92026661 -2.18678516 0 0 Z M-8.8125 1.75 C-8.8125 5.38 -8.8125 9.01 -8.8125 12.75 C-6.3375 13.245 -6.3375 13.245 -3.8125 13.75 C-2.14403266 12.05504044 -2.14403266 12.05504044 -0.8125 9.75 C-1.09435425 6.86099395 -1.89365668 4.50652997 -2.8125 1.75 C-4.7925 1.75 -6.7725 1.75 -8.8125 1.75 Z " fill="#545454" transform="translate(268.8125,78.25)"/>
<path d="M0 0 C6.2297985 0.11743621 12.45941685 0.24227034 18.68896484 0.37231445 C20.80937313 0.41569752 22.92981712 0.45737007 25.05029297 0.49731445 C28.09353408 0.55493543 31.1365949 0.61865325 34.1796875 0.68359375 C35.13181122 0.70030624 36.08393494 0.71701874 37.06491089 0.73423767 C37.94567291 0.75418289 38.82643494 0.77412811 39.73388672 0.79467773 C40.51110077 0.81022202 41.28831482 0.8257663 42.08908081 0.84178162 C44 1 44 1 46 2 C46 2.66 46 3.32 46 4 C40.83233282 6.05703257 36.10439553 6.41452258 30.625 6.625 C27.77875 6.74875 24.9325 6.8725 22 7 C22 16.24 22 25.48 22 35 C21.67 35 21.34 35 21 35 C20.505 19.655 20.505 19.655 20 4 C19.34 4 18.68 4 18 4 C18 3.34 18 2.68 18 2 C12.555 2.495 12.555 2.495 7 3 C7 3.99 7 4.98 7 6 C4.64828869 5.40138258 2.3140622 4.73075648 0 4 C-0.33 3.34 -0.66 2.68 -1 2 C-0.67 1.34 -0.34 0.68 0 0 Z " fill="#A2C2B6" transform="translate(25,57)"/>
<path d="M0 0 C2.76307249 2.62137646 4.75761508 5.12184122 5 9 C4.20020812 12.64349634 3.39426549 13.7401432 0.25 15.8125 C-3.2495007 17.09116372 -5.31749182 17.53703244 -9 17 C-12.3125 15.375 -12.3125 15.375 -15 13 C-16.16725253 9.57119568 -16.21153819 7.71597542 -15.1875 4.25 C-13.92589454 1.85958965 -12.90717738 0.38380581 -10.375 -0.6875 C-6.78533024 -1.15982497 -3.48199954 -1.05103477 0 0 Z M-8.625 2.1875 C-10.41077626 4.5414778 -10.85924966 6.04424292 -11 9 C-9.72914002 11.94304416 -8.89703671 13.55148165 -6 15 C-3.96294374 15.15740714 -3.96294374 15.15740714 -2.25 14.0625 C-0.298247 10.84210755 -0.42713318 7.66634768 -1 4 C-2.1488697 1.92993467 -2.1488697 1.92993467 -4 1 C-6.93174698 0.70499171 -6.93174698 0.70499171 -8.625 2.1875 Z " fill="#505050" transform="translate(391,78)"/>
<path d="M0 0 C3.20482878 1.05668975 3.979939 1.96429424 5.66796875 4.96875 C6.42013672 6.71671875 6.42013672 6.71671875 7.1875 8.5 C7.69667969 9.6653125 8.20585937 10.830625 8.73046875 12.03125 C9.35888672 13.50078125 9.35888672 13.50078125 10 15 C10.33 15.66 10.66 16.32 11 17 C8.69 17.33 6.38 17.66 4 18 C3.67 17.01 3.34 16.02 3 15 C0.98491642 14.26676204 0.98491642 14.26676204 -1 14 C-1.66 15.32 -2.32 16.64 -3 18 C-6.63 18 -10.26 18 -14 18 C-14.33 16.68 -14.66 15.36 -15 14 C-13.35 14 -11.7 14 -10 14 C-9.67 13.34 -9.34 12.68 -9 12 C-8.01 12.33 -7.02 12.66 -6 13 C-3.81673892 8.72886302 -1.68673918 4.49797113 0 0 Z M0 8 C1 11 1 11 1 11 Z " fill="#484848" transform="translate(347,77)"/>
<path d="M0 0 C1.32 0.66 2.64 1.32 4 2 C3.67 3.98 3.34 5.96 3 8 C4.98 8 6.96 8 9 8 C8.67 5.69 8.34 3.38 8 1 C11 0 11 0 14 1 C14.33 6.28 14.66 11.56 15 17 C12.69 17 10.38 17 8 17 C8 15.02 8 13.04 8 11 C6.35 10.67 4.7 10.34 3 10 C3.33 12.31 3.66 14.62 4 17 C2.68 17.33 1.36 17.66 0 18 C-1.52491129 14.95017742 -1.14361434 11.77877461 -1.125 8.4375 C-1.12886719 7.73947266 -1.13273438 7.04144531 -1.13671875 6.32226562 C-1.12663994 1.12663994 -1.12663994 1.12663994 0 0 Z " fill="#3E3E3E" transform="translate(174,77)"/>
<path d="M0 0 C8.91 0 17.82 0 27 0 C27 0.66 27 1.32 27 2 C24.36 2.33 21.72 2.66 19 3 C18.67 13.23 18.34 23.46 18 34 C17.67 34 17.34 34 17 34 C16.67 25.09 16.34 16.18 16 7 C15.01 7.495 15.01 7.495 14 8 C12.35 8 10.7 8 9 8 C8.67 13.28 8.34 18.56 8 24 C7.67 24 7.34 24 7 24 C6.98018066 23.40461426 6.96036133 22.80922852 6.93994141 22.19580078 C6.84483874 19.50507847 6.73510158 16.81514852 6.625 14.125 C6.5940625 13.18785156 6.563125 12.25070313 6.53125 11.28515625 C6.49257812 10.38925781 6.45390625 9.49335937 6.4140625 8.5703125 C6.3826416 7.74289551 6.3512207 6.91547852 6.31884766 6.06298828 C6.17400863 3.78013915 6.17400863 3.78013915 4 2 C2.68 1.34 1.36 0.68 0 0 Z " fill="#5C746B" transform="translate(93,80)"/>
<path d="M0 0 C1.83884766 0.49113281 1.83884766 0.49113281 3.71484375 0.9921875 C9.66746345 2.31499188 15.49202571 2.22013703 21.5625 2.125 C22.66658203 2.11597656 23.77066406 2.10695312 24.90820312 2.09765625 C27.6057017 2.07430128 30.30273077 2.04155054 33 2 C33 2.99 33 3.98 33 5 C20.28765936 7.8475643 9.90358439 8.74753128 -3 6 C-2.505 5.38125 -2.01 4.7625 -1.5 4.125 C0.19222773 2.16119096 0.19222773 2.16119096 0 0 Z " fill="#50645C" transform="translate(132,147)"/>
<path d="M0 0 C1 1 1 1 1.0625 3.5625 C1.041875 4.366875 1.02125 5.17125 1 6 C0.34 6 -0.32 6 -1 6 C-1.433125 5.505 -1.86625 5.01 -2.3125 4.5 C-3.96020352 2.72788682 -3.96020352 2.72788682 -6.6875 2.8125 C-7.450625 2.874375 -8.21375 2.93625 -9 3 C-9.92844389 7.33273814 -9.92844389 10.66726186 -9 15 C-6.12635209 15.41746608 -6.12635209 15.41746608 -3 15 C-1.0645852 12.60943058 -1.0645852 12.60943058 0 10 C0.66 10.66 1.32 11.32 2 12 C1.625 14.625 1.625 14.625 1 17 C-3.22809277 18.35298969 -7.64806128 19.03465115 -11.8203125 17.19921875 C-13.5 16.0625 -13.5 16.0625 -16 13 C-16.48135677 9.7406927 -16.07620383 7.10131858 -15 4 C-11.16720101 -1.06918576 -5.8702338 -0.663119 0 0 Z " fill="#454545" transform="translate(373,77)"/>
<path d="M0 0 C2 2 2 2 2 4.875 C0.92946111 8.22043404 -0.02565483 9.3235903 -3.0546875 11.04296875 C-4.01761719 11.51669922 -4.01761719 11.51669922 -5 12 C-5.80695313 12.40863281 -6.61390625 12.81726563 -7.4453125 13.23828125 C-9.96571664 14.393153 -12.29989317 15.36653068 -15 16 C-18.125 14.75 -18.125 14.75 -20 13 C-19.67 12.01 -19.34 11.02 -19 10 C-16.5234375 8.7890625 -16.5234375 8.7890625 -13.375 7.625 C-8.2612994 5.61735382 -4.28656857 3.40977045 0 0 Z " fill="#476557" transform="translate(100,114)"/>
<path d="M0 0 C5.11969523 0.92590233 10.10348247 1.9743688 15.0625 3.5625 C18.42690382 4.62718475 21.54740838 5.25103619 25.0625 5.5625 C26.361875 5.706875 27.66125 5.85125 29 6 C29.33 6.66 29.66 7.32 30 8 C26.0248466 9.87633173 22.87842955 10.24376487 18.5 10.1875 C17.3965625 10.18105469 16.293125 10.17460937 15.15625 10.16796875 C12.29441041 10.01566788 9.74844918 9.80981092 7 9 C6 7.33333333 5 5.66666667 4 4 C1.40877257 3.11341534 1.40877257 3.11341534 -1 3 C-0.67 2.01 -0.34 1.02 0 0 Z " fill="#8AB4A1" transform="translate(126,178)"/>
<path d="M0 0 C4.78230599 0.74324693 9.47894671 1.70588149 14.1875 2.8125 C15.25387695 3.04163086 15.25387695 3.04163086 16.34179688 3.27539062 C19.62356785 4.05647064 21.65857936 4.63309019 23.98828125 7.13671875 C24.32214844 7.75160156 24.65601562 8.36648437 25 9 C16.40630847 9.30570444 9.02241187 9.45793615 1 6 C0 5 0 5 -0.0625 2.4375 C-0.041875 1.633125 -0.02125 0.82875 0 0 Z " fill="#4B655B" transform="translate(46,122)"/>
<path d="M0 0 C1.9375 0.25 1.9375 0.25 4 1 C8.20934535 7.31401802 8.27967756 15.58854456 8 23 C5 22 5 22 3.68359375 19.63671875 C3.27238281 18.66347656 2.86117187 17.69023438 2.4375 16.6875 C2.02371094 15.72199219 1.60992187 14.75648437 1.18359375 13.76171875 C0.79300781 12.85035156 0.40242188 11.93898438 0 11 C-0.38671875 10.2884375 -0.7734375 9.576875 -1.171875 8.84375 C-2.4272872 6.04868133 -1.70904806 3.90065117 -1 1 C-0.67 0.67 -0.34 0.34 0 0 Z " fill="#3C5E4E" transform="translate(99,32)"/>
<path d="M0 0 C1.29315061 0.95632999 2.58446853 1.91513851 3.875 2.875 C4.59429687 3.40867188 5.31359375 3.94234375 6.0546875 4.4921875 C8 6 8 6 10 8 C7.69 8 5.38 8 3 8 C2.67 8.66 2.34 9.32 2 10 C2.763125 9.938125 3.52625 9.87625 4.3125 9.8125 C7 10 7 10 8.8125 11.375 C10 13 10 13 10 15 C5.50779292 14.45508731 2.20043959 13.31847613 -1.75 11.125 C-2.69359375 10.61195313 -3.6371875 10.09890625 -4.609375 9.5703125 C-7 8 -7 8 -9 5 C-3.375 3 -3.375 3 0 3 C0 2.01 0 1.02 0 0 Z " fill="#8FB9A6" transform="translate(123,171)"/>
<path d="M0 0 C1.11375 0.185625 2.2275 0.37125 3.375 0.5625 C6.82568861 1.31680657 6.82568861 1.31680657 9 0 C12.51414502 1.17138167 13.17375749 1.84558112 15 5 C15.6875 8.75 15.6875 8.75 16 12 C14.02 12.99 14.02 12.99 12 14 C12 13.34 12 12.68 12 12 C11.01 11.67 10.02 11.34 9 11 C8 10 7 9 6 8 C5.13375 7.54625 4.2675 7.0925 3.375 6.625 C1 5 1 5 0.1875 2.3125 C0.0946875 1.1678125 0.0946875 1.1678125 0 0 Z " fill="#7DAF98" transform="translate(68,124)"/>
<path d="M0 0 C1.68933922 1.6436814 3.35259924 3.3142876 5 5 C5.598125 5.598125 6.19625 6.19625 6.8125 6.8125 C8.65405161 10.2048319 8.19110749 13.17785018 8 17 C3.8911959 16.47470631 1.74480159 15.33192009 -1.3125 12.5625 C-2.00988281 11.94503906 -2.70726562 11.32757813 -3.42578125 10.69140625 C-5 9 -5 9 -5 7 C-1.535 6.505 -1.535 6.505 2 6 C1.34 4.02 0.68 2.04 0 0 Z " fill="#49675B" transform="translate(29,105)"/>
<path d="M0 0 C1.65 0 3.3 0 5 0 C5.75644808 2.72321308 6.17031512 4.45808824 5.3125 7.1875 C3.66565308 9.46171717 2.67980529 10.13087396 0 11 C-4.51551792 11.3284013 -7.96558705 11.13586568 -12 9 C-12.33 8.34 -12.66 7.68 -13 7 C-10.525 7.99 -10.525 7.99 -8 9 C-8.66 8.01 -9.32 7.02 -10 6 C-9.625 3.8125 -9.625 3.8125 -9 2 C-8.773125 2.639375 -8.54625 3.27875 -8.3125 3.9375 C-7.14749104 6.27193661 -7.14749104 6.27193661 -4.375 6.75 C-3.59125 6.8325 -2.8075 6.915 -2 7 C-1.855625 6.401875 -1.71125 5.80375 -1.5625 5.1875 C-1.1127561 3.43849596 -0.57107659 1.71322977 0 0 Z " fill="#636363" transform="translate(295,84)"/>
<path d="M0 0 C1.2065625 0.0309375 1.2065625 0.0309375 2.4375 0.0625 C3.85823811 2.90397621 3.53174675 5.33590748 3.5 8.5 C3.49097656 9.65371094 3.48195313 10.80742188 3.47265625 11.99609375 C3.46105469 13.00800781 3.44945312 14.01992187 3.4375 15.0625 C3.4375 16.0525 3.4375 17.0425 3.4375 18.0625 C1.1275 18.0625 -1.1825 18.0625 -3.5625 18.0625 C-3.8925 17.4025 -4.2225 16.7425 -4.5625 16.0625 C-4.2325 15.4025 -3.9025 14.7425 -3.5625 14.0625 C-3.51699619 11.87547333 -3.5240866 9.6871627 -3.5625 7.5 C-3.60009919 5.3544961 -3.60920095 3.20782508 -3.5625 1.0625 C-2.5625 0.0625 -2.5625 0.0625 0 0 Z " fill="#434343" transform="translate(306.5625,76.9375)"/>
<path d="M0 0 C1.98 0 3.96 0 6 0 C6 5.28 6 10.56 6 16 C5.01 16.33 4.02 16.66 3 17 C0.5 14.6875 0.5 14.6875 -2 12 C-2 11.01 -2 10.02 -2 9 C-1.34 9 -0.68 9 0 9 C0 6.03 0 3.06 0 0 Z " fill="#282828" transform="translate(246,78)"/>
<path d="M0 0 C0.66 0 1.32 0 2 0 C2.495 7.92 2.495 7.92 3 16 C0.525 15.505 0.525 15.505 -2 15 C-2.66 15.66 -3.32 16.32 -4 17 C-8.94576735 17.32431261 -12.49016424 17.25491788 -17 15 C-15.89131683 12.78263366 -14.50559539 10.96382007 -13 9 C-12.67 10.65 -12.34 12.3 -12 14 C-7.2482602 13.56802365 -5.07999946 12.67230705 -2 9 C-1.67 9.99 -1.34 10.98 -1 12 C-0.34 12.33 0.32 12.66 1 13 C0.505 6.565 0.505 6.565 0 0 Z " fill="#939393" transform="translate(171,78)"/>
<path d="M0 0 C2.31 0.33 4.62 0.66 7 1 C6.67 1.66 6.34 2.32 6 3 C5.92883618 5.37402501 5.91590915 7.75000677 5.9375 10.125 C5.94652344 11.40632813 5.95554687 12.68765625 5.96484375 14.0078125 C5.97644531 14.99523437 5.98804688 15.98265625 6 17 C4.35 17.33 2.7 17.66 1 18 C-0.0712828 11.97403427 -0.09945415 6.11090483 0 0 Z " fill="#2D2D2D" transform="translate(327,77)"/>
<path d="M0 0 C1.13598633 0.00483398 1.13598633 0.00483398 2.29492188 0.00976562 C3.47344727 0.02233398 3.47344727 0.02233398 4.67578125 0.03515625 C5.47306641 0.03966797 6.27035156 0.04417969 7.09179688 0.04882812 C9.05732382 0.06059775 11.0228121 0.07853277 12.98828125 0.09765625 C12.98828125 1.41765625 12.98828125 2.73765625 12.98828125 4.09765625 C10.21686408 4.17855167 7.44780306 4.23809687 4.67578125 4.28515625 C3.89009766 4.31029297 3.10441406 4.33542969 2.29492188 4.36132812 C1.53759766 4.37099609 0.78027344 4.38066406 0 4.390625 C-0.69649658 4.40633545 -1.39299316 4.4220459 -2.1105957 4.43823242 C-4.55661658 4.00004068 -5.43873961 2.96328267 -7.01171875 1.09765625 C-4.30455633 0.19526878 -2.77395107 -0.02085677 0 0 Z " fill="#38564A" transform="translate(65.01171875,24.90234375)"/>
<path d="M0 0 C1.32 0 2.64 0 4 0 C4.33 5.94 4.66 11.88 5 18 C3.02 18 1.04 18 -1 18 C-0.505 9.09 -0.505 9.09 0 0 Z " fill="#111110" transform="translate(126,76)"/>
<path d="M0 0 C0.66 0.33 1.32 0.66 2 1 C2.59765625 3.8359375 2.59765625 3.8359375 3.0625 7.375 C3.51516268 10.7493945 3.92283301 13.76849904 5 17 C2 18 2 18 -1 17 C-1 14.03 -1 11.06 -1 8 C-1.66 7.67 -2.32 7.34 -3 7 C-2.01 4.69 -1.02 2.38 0 0 Z " fill="#343434" transform="translate(208,77)"/>
<path d="M0 0 C0.8971875 0.309375 0.8971875 0.309375 1.8125 0.625 C1.8125 1.285 1.8125 1.945 1.8125 2.625 C-4.9375 6.625 -4.9375 6.625 -7.1875 6.625 C-6.8575 7.615 -6.5275 8.605 -6.1875 9.625 C-7.5075 10.945 -8.8275 12.265 -10.1875 13.625 C-10.8475 13.295 -11.5075 12.965 -12.1875 12.625 C-13.1775 12.295 -14.1675 11.965 -15.1875 11.625 C-14.81357279 8.91402773 -14.37392373 7.80499533 -12.375 5.875 C-10.1875 4.625 -10.1875 4.625 -6.1875 4.625 C-5.8575 3.635 -5.5275 2.645 -5.1875 1.625 C-2.1875 -0.375 -2.1875 -0.375 0 0 Z " fill="#2E5141" transform="translate(40.1875,32.375)"/>
<path d="M0 0 C21.78 0.495 21.78 0.495 44 1 C44 1.33 44 1.66 44 2 C31.79 2.33 19.58 2.66 7 3 C7 3.99 7 4.98 7 6 C4.64828869 5.40138258 2.3140622 4.73075648 0 4 C-0.33 3.34 -0.66 2.68 -1 2 C-0.67 1.34 -0.34 0.68 0 0 Z " fill="#C1D7CC" transform="translate(25,57)"/>
<path d="M0 0 C0.33 0 0.66 0 1 0 C1.21715569 4.50170202 1.41398879 9.00366157 1.59204102 13.50708008 C1.65546794 15.03889699 1.72444183 16.57049468 1.79907227 18.10180664 C1.90539597 20.30320678 1.99173827 22.50462487 2.07421875 24.70703125 C2.11157639 25.39150833 2.14893402 26.07598541 2.18742371 26.78120422 C2.33926359 31.58400437 2.33926359 31.58400437 0.55786133 33.76831055 C-0.21328003 34.37799683 -0.21328003 34.37799683 -1 35 C-1.33 35.99 -1.66 36.98 -2 38 C-4.64 38 -7.28 38 -10 38 C-9 36 -9 36 -6.0625 34.5625 C-2.78256825 33.20367158 -2.78256825 33.20367158 -1 30 C-0.63000663 26.80009946 -0.63000663 26.80009946 -0.5859375 23.14453125 C-0.56657135 22.48289474 -0.5472052 21.82125824 -0.5272522 21.13957214 C-0.46757313 19.03067836 -0.42111913 16.92172963 -0.375 14.8125 C-0.33680934 13.38083585 -0.29775697 11.94919441 -0.2578125 10.51757812 C-0.16188227 7.01192688 -0.07780803 3.50610555 0 0 Z " fill="#ABC9BB" transform="translate(36,123)"/>
<path d="M0 0 C3.59634744 3.49359465 6.83451967 7.11098131 10 11 C9.01 11 8.02 11 7 11 C6.67 12.32 6.34 13.64 6 15 C6 13.68 6 12.36 6 11 C5.01 11.33 4.02 11.66 3 12 C2.34 9.36 1.68 6.72 1 4 C0.34 4 -0.32 4 -1 4 C-0.67 2.68 -0.34 1.36 0 0 Z M0 14 C1.32 14 2.64 14 4 14 C4.66 14.66 5.32 15.32 6 16 C5.34 17.32 4.68 18.64 4 20 C2.68 18.02 1.36 16.04 0 14 Z " fill="#8EBAA6" transform="translate(88,135)"/>
<path d="M0 0 C0.99 0.66 1.98 1.32 3 2 C4.32567199 2.68177416 5.65753688 3.35191436 7 4 C6.34 4 5.68 4 5 4 C4.67 4.99 4.34 5.98 4 7 C3.34 7 2.68 7 2 7 C1.67 7.99 1.34 8.98 1 10 C0.34 10 -0.32 10 -1 10 C-1.33 10.66 -1.66 11.32 -2 12 C-2.99 11.67 -3.98 11.34 -5 11 C-4.47731534 8.23723823 -3.89130413 5.6739124 -3 3 C-2.34 3 -1.68 3 -1 3 C-0.67 2.01 -0.34 1.02 0 0 Z " fill="#2C5342" transform="translate(22,46)"/>
<path d="M0 0 C1.97986082 0.11347619 3.95891598 0.2410935 5.9375 0.375 C7.59072266 0.47941406 7.59072266 0.47941406 9.27734375 0.5859375 C10.17582031 0.72257813 11.07429688 0.85921875 12 1 C12.33 1.66 12.66 2.32 13 3 C9.0248466 4.87633173 5.87842955 5.24376487 1.5 5.1875 C0.3965625 5.18105469 -0.706875 5.17460937 -1.84375 5.16796875 C-4.67226083 5.01744156 -7.24692555 4.64204162 -10 4 C-10 3.67 -10 3.34 -10 3 C-6.7 2.67 -3.4 2.34 0 2 C0 1.34 0 0.68 0 0 Z " fill="#ABC7BA" transform="translate(143,183)"/>
<path d="M0 0 C3.05074215 -0.28780586 5.96183742 -0.45787911 9 0 C11.0625 2.5 11.0625 2.5 12 5 C11.34 5.66 10.68 6.32 10 7 C3.91304348 6.45652174 3.91304348 6.45652174 1 5 C0.375 2.4375 0.375 2.4375 0 0 Z " fill="#4A665A" transform="translate(121,145)"/>
<path d="M0 0 C1.32 0.33 2.64 0.66 4 1 C5.875 4.25 5.875 4.25 7 8 C6.1875 10.9375 6.1875 10.9375 5 13 C3.68 13 2.36 13 1 13 C0.67 8.71 0.34 4.42 0 0 Z " fill="#3B3B3B" transform="translate(389,79)"/>
<path d="M0 0 C1.65 0 3.3 0 5 0 C5.50615298 1.26839526 6.00469099 2.53983102 6.5 3.8125 C6.91765625 4.87404297 6.91765625 4.87404297 7.34375 5.95703125 C8 8 8 8 8 11 C7.01 11.33 6.02 11.66 5 12 C4.67 10.35 4.34 8.7 4 7 C2.68 7 1.36 7 0 7 C-1.125 2.25 -1.125 2.25 0 0 Z " fill="#406154" transform="translate(112,133)"/>
<path d="M0 0 C0.33 0 0.66 0 1 0 C2.32388229 6.43028541 3.24794402 12.4294834 3 19 C0 18 0 18 -1.16796875 16.00390625 C-1.50441406 15.19824219 -1.84085937 14.39257812 -2.1875 13.5625 C-2.70376953 12.35787109 -2.70376953 12.35787109 -3.23046875 11.12890625 C-4 9 -4 9 -4 7 C-2.68 7.33 -1.36 7.66 0 8 C0 5.36 0 2.72 0 0 Z " fill="#8F9C96" transform="translate(104,36)"/>
<path d="M0 0 C2.39489543 0.74324341 3.70777616 1.47057354 4.93359375 3.69140625 C5.67219923 5.44073501 6.34049685 7.21934149 7 9 C6.34 9 5.68 9 5 9 C4.34 8.34 3.68 7.68 3 7 C2.67 8.65 2.34 10.3 2 12 C-0.97 11.505 -0.97 11.505 -4 11 C-3.52269162 9.5410574 -3.04308958 8.08286504 -2.5625 6.625 C-2.29566406 5.81289062 -2.02882813 5.00078125 -1.75390625 4.1640625 C-1 2 -1 2 0 0 Z M0 8 C1 11 1 11 1 11 Z " fill="#7E7E7E" transform="translate(347,77)"/>
<path d="M0 0 C2.4375 0.625 2.4375 0.625 5 2 C6.15820967 5.474629 6.19946176 7.38831726 5.0625 10.875 C4.711875 11.57625 4.36125 12.2775 4 13 C2.35 13 0.7 13 -1 13 C-0.9278125 12.22914062 -0.855625 11.45828125 -0.78125 10.6640625 C-0.64203125 9.15972656 -0.64203125 9.15972656 -0.5 7.625 C-0.4071875 6.62726563 -0.314375 5.62953125 -0.21875 4.6015625 C0.02792947 2.10296264 0.02792947 2.10296264 0 0 Z " fill="#353535" transform="translate(267,80)"/>
<path d="M0 0 C3.3 0 6.6 0 10 0 C10.33 1.32 10.66 2.64 11 4 C11.66 4.33 12.32 4.66 13 5 C13 5.66 13 6.32 13 7 C11.68 7.33 10.36 7.66 9 8 C8.67 13.28 8.34 18.56 8 24 C7.67 24 7.34 24 7 24 C6.98018066 23.40461426 6.96036133 22.80922852 6.93994141 22.19580078 C6.84483874 19.50507847 6.73510158 16.81514852 6.625 14.125 C6.5940625 13.18785156 6.563125 12.25070313 6.53125 11.28515625 C6.49257812 10.38925781 6.45390625 9.49335937 6.4140625 8.5703125 C6.3826416 7.74289551 6.3512207 6.91547852 6.31884766 6.06298828 C6.17400863 3.78013915 6.17400863 3.78013915 4 2 C2.68 1.34 1.36 0.68 0 0 Z " fill="#728B7F" transform="translate(93,80)"/>
<path d="M0 0 C0.66 0 1.32 0 2 0 C2.165 1.258125 2.33 2.51625 2.5 3.8125 C3.15736595 6.58422955 3.46607963 7.66548254 5.9140625 9.19921875 C7.93152544 9.92992529 9.90667445 10.5326529 12 11 C12 11.66 12 12.32 12 13 C8.28400809 13.20086443 7.22791555 13.1519437 4 11 C3.67 11.33 3.34 11.66 3 12 C1.00041636 12.04080783 -1.00045254 12.04254356 -3 12 C-2.34 11.67 -1.68 11.34 -1 11 C-1.20625 10.38125 -1.4125 9.7625 -1.625 9.125 C-1.74875 8.42375 -1.8725 7.7225 -2 7 C-1.34 6.34 -0.68 5.68 0 5 C0.16687448 2.41645782 0.16687448 2.41645782 0 0 Z " fill="#9BBFAF" transform="translate(45,148)"/>
<path d="M0 0 C2.97 0.495 2.97 0.495 6 1 C6.33 1.99 6.66 2.98 7 4 C6.01 5.485 6.01 5.485 5 7 C-0.94 6.01 -0.94 6.01 -7 5 C-6.67 4.34 -6.34 3.68 -6 3 C-2.9375 2.375 -2.9375 2.375 0 2 C0 1.34 0 0.68 0 0 Z " fill="#91B8A7" transform="translate(71,59)"/>
<path d="M0 0 C0.99 0.33 1.98 0.66 3 1 C4.1875 3.5625 4.1875 3.5625 5 6 C5.66 6 6.32 6 7 6 C7 6.66 7 7.32 7 8 C4.36 8.33 1.72 8.66 -1 9 C-2.38111722 6.7252187 -3.05694702 5.49828639 -2.75 2.8125 C-2 1 -2 1 0 0 Z " fill="#345546" transform="translate(24,103)"/>
<path d="M0 0 C1.1055189 0.93590504 2.20935453 1.87379858 3.3125 2.8125 C3.92738281 3.33457031 4.54226562 3.85664063 5.17578125 4.39453125 C6.85424679 5.87172469 8.43882034 7.40039131 10 9 C8.02 9.33 6.04 9.66 4 10 C3.67 10.99 3.34 11.98 3 13 C1.68 11.68 0.36 10.36 -1 9 C-0.01 8.67 0.98 8.34 2 8 C1.34 5.36 0.68 2.72 0 0 Z " fill="#597568" transform="translate(118,136)"/>
<path d="M0 0 C1.70840281 1.63412443 2.93453047 2.86906094 4 5 C2 7 2 7 -0.6015625 7.1953125 C-1.59929687 7.17210938 -2.59703125 7.14890625 -3.625 7.125 C-5.12933594 7.09792969 -5.12933594 7.09792969 -6.6640625 7.0703125 C-7.43492187 7.04710938 -8.20578125 7.02390625 -9 7 C-9.33 5.68 -9.66 4.36 -10 3 C-8.35 3 -6.7 3 -5 3 C-4.67 2.34 -4.34 1.68 -4 1 C-3.01 1.33 -2.02 1.66 -1 2 C-0.67 1.34 -0.34 0.68 0 0 Z " fill="#AAAAAA" transform="translate(342,88)"/>
<path d="M0 0 C0.33 0.99 0.66 1.98 1 3 C1.99 3.33 2.98 3.66 4 4 C4.66 4.66 5.32 5.32 6 6 C5.625 8.125 5.625 8.125 5 10 C2.6568787 9.74438677 0.32156597 9.40729228 -2 9 C-2.33 8.34 -2.66 7.68 -3 7 C-3.33 7.66 -3.66 8.32 -4 9 C-4.66 9 -5.32 9 -6 9 C-4.47291037 5.56404834 -2.40072955 2.88087546 0 0 Z M-1 4 C0 6 0 6 0 6 Z " fill="#395E50" transform="translate(25,40)"/>
<path d="M0 0 C0.350625 0.639375 0.70125 1.27875 1.0625 1.9375 C3.77184206 4.82163832 6.15858911 4.7100822 10 5 C10 5.66 10 6.32 10 7 C10.99 7.33 11.98 7.66 13 8 C9.81434478 8.97792207 7.18678911 9.04657813 3.875 8.75 C3.00617188 8.68296875 2.13734375 8.6159375 1.2421875 8.546875 C-1 8 -1 8 -3 5 C-0.525 5.99 -0.525 5.99 2 7 C1.34 6.01 0.68 5.02 0 4 C0 2.68 0 1.36 0 0 Z " fill="#AAAAAA" transform="translate(285,86)"/>
<path d="M0 0 C0.99 0.33 1.98 0.66 3 1 C3 5.62 3 10.24 3 15 C3.66 15.33 4.32 15.66 5 16 C3.68 16.33 2.36 16.66 1 17 C-0.53266582 13.93466836 -0.10276471 10.73245728 -0.0625 7.375 C-0.05798828 6.66859375 -0.05347656 5.9621875 -0.04882812 5.234375 C-0.03703875 3.48954725 -0.01910324 1.744763 0 0 Z " fill="#0B0B0B" transform="translate(173,78)"/>
<path d="M0 0 C0.85078125 0.00322266 1.7015625 0.00644531 2.578125 0.00976562 C3.46757813 0.01814453 4.35703125 0.02652344 5.2734375 0.03515625 C6.170625 0.03966797 7.0678125 0.04417969 7.9921875 0.04882812 C10.21100398 0.06063034 12.42968768 0.0770947 14.6484375 0.09765625 C14.6484375 0.42765625 14.6484375 0.75765625 14.6484375 1.09765625 C12.84246094 1.18853516 12.84246094 1.18853516 11 1.28125 C9.42446673 1.36565357 7.84894654 1.45030166 6.2734375 1.53515625 C5.479375 1.57447266 4.6853125 1.61378906 3.8671875 1.65429688 C-0.37757471 1.78659029 -0.37757471 1.78659029 -4.3515625 3.09765625 C-3.6915625 3.42765625 -3.0315625 3.75765625 -2.3515625 4.09765625 C-2.3515625 4.75765625 -2.3515625 5.41765625 -2.3515625 6.09765625 C-5.3215625 6.09765625 -8.2915625 6.09765625 -11.3515625 6.09765625 C-5.37533967 -0.0358356 -5.37533967 -0.0358356 0 0 Z " fill="#5E766D" transform="translate(63.3515625,23.90234375)"/>
<path d="M0 0 C0.99 0 1.98 0 3 0 C3.66 1.98 4.32 3.96 5 6 C5.66 6 6.32 6 7 6 C6.67 7.32 6.34 8.64 6 10 C2.89448334 10 1.64738916 9.4606285 -1 8 C-1.08226668 4.95613276 -0.97608217 2.92824652 0 0 Z " fill="#7DB39B" transform="translate(87,140)"/>
<path d="M0 0 C2.5 2.25 2.5 2.25 5 5 C5 6.32 5 7.64 5 9 C5.66 9.33 6.32 9.66 7 10 C5.68 11.32 4.36 12.64 3 14 C2.34 13.34 1.68 12.68 1 12 C1.33 11.34 1.66 10.68 2 10 C1.34 10 0.68 10 0 10 C0 6.7 0 3.4 0 0 Z " fill="#8CB8A4" transform="translate(83,129)"/>
<path d="M0 0 C0.99 0.66 1.98 1.32 3 2 C2.67 2.99 2.34 3.98 2 5 C-1.48683029 6.47519743 -5.2829042 6.27534043 -9 6 C-9.66 5.01 -10.32 4.02 -11 3 C-4.375 1 -4.375 1 -1 1 C-0.67 0.67 -0.34 0.34 0 0 Z " fill="#7FB09A" transform="translate(78,106)"/>
<path d="M0 0 C0.88945312 0.00644531 1.77890625 0.01289062 2.6953125 0.01953125 C4.875 0.1875 4.875 0.1875 5.875 1.1875 C5.91563832 2.85367115 5.917721 4.52138095 5.875 6.1875 C5.215 6.1875 4.555 6.1875 3.875 6.1875 C3.441875 5.6925 3.00875 5.1975 2.5625 4.6875 C0.91479648 2.91538682 0.91479648 2.91538682 -1.8125 3 C-2.575625 3.061875 -3.33875 3.12375 -4.125 3.1875 C-4.455 4.8375 -4.785 6.4875 -5.125 8.1875 C-5.455 8.1875 -5.785 8.1875 -6.125 8.1875 C-6.125 6.5375 -6.125 4.8875 -6.125 3.1875 C-6.785 2.8575 -7.445 2.5275 -8.125 2.1875 C-4.84237969 -0.00091354 -3.80709102 -0.06104665 0 0 Z " fill="#818181" transform="translate(368.125,76.8125)"/>
<path d="M0 0 C0.99 0.33 1.98 0.66 3 1 C3 5.62 3 10.24 3 15 C2.01 15 1.02 15 0 15 C0 10.05 0 5.1 0 0 Z " fill="#030303" transform="translate(146,78)"/>
<path d="M0 0 C1.21236328 0.01353516 1.21236328 0.01353516 2.44921875 0.02734375 C3.37154297 0.04474609 3.37154297 0.04474609 4.3125 0.0625 C4.9725 1.3825 5.6325 2.7025 6.3125 4.0625 C5.3225 5.5475 5.3225 5.5475 4.3125 7.0625 C3.57 6.381875 2.8275 5.70125 2.0625 5 C-0.44699064 2.77896324 -0.44699064 2.77896324 -3 3.3125 C-3.8353125 3.68375 -3.8353125 3.68375 -4.6875 4.0625 C-4.6875 3.4025 -4.6875 2.7425 -4.6875 2.0625 C-6.0075 2.3925 -7.3275 2.7225 -8.6875 3.0625 C-6.88341097 -0.54567807 -3.60175697 -0.05219938 0 0 Z " fill="#9E9E9E" transform="translate(163.6875,76.9375)"/>
<path d="M0 0 C0.66 0.66 1.32 1.32 2 2 C1.625 4.625 1.625 4.625 1 7 C-2.68379022 8.17881287 -6.15541573 8.21358801 -10 8 C-10.66 7.34 -11.32 6.68 -12 6 C-11.38511719 5.98582031 -10.77023437 5.97164063 -10.13671875 5.95703125 C-7.66500527 5.81117256 -5.40322852 5.60506817 -3 5 C-0.8613923 2.61012067 -0.8613923 2.61012067 0 0 Z " fill="#9C9C9C" transform="translate(373,87)"/>
<path d="M0 0 C-0.99 0.33 -1.98 0.66 -3 1 C-3.33 1.99 -3.66 2.98 -4 4 C-7.0625 5.1875 -7.0625 5.1875 -10 6 C-9.56453143 12.60718405 -9.56453143 12.60718405 -6 18 C-9.875 16.125 -9.875 16.125 -11 15 C-11.51880799 10.33072813 -11.96395769 6.31740884 -9.125 2.4375 C-5.81826076 0.20058816 -3.97058167 -0.10448899 0 0 Z " fill="#99ADA6" transform="translate(225,76)"/>
<path d="M0 0 C1.65 0.33 3.3 0.66 5 1 C5.66 3.31 6.32 5.62 7 8 C3.97580475 7.41196203 0.98241547 6.77321882 -2 6 C-1.49396008 3.83125748 -1.00016187 2.00032373 0 0 Z " fill="#7DB099" transform="translate(98,151)"/>
<path d="M0 0 C2.475 0.495 2.475 0.495 5 1 C5.08114106 2.77007714 5.13925505 4.54122098 5.1875 6.3125 C5.22230469 7.29863281 5.25710938 8.28476563 5.29296875 9.30078125 C5 12 5 12 2 15 C2 10.38 2 5.76 2 1 C1.34 0.67 0.68 0.34 0 0 Z " fill="#070707" transform="translate(312,78)"/>
<path d="M0 0 C0.99 0.33 1.98 0.66 3 1 C2.67 1.99 2.34 2.98 2 4 C1.34 4 0.68 4 0 4 C0.309375 5.918125 0.309375 5.918125 0.625 7.875 C0.9765625 10.0546875 0.9765625 10.0546875 1 12 C0.34 12.66 -0.32 13.32 -1 14 C-1.48108275 12.58398286 -1.95978141 11.16715563 -2.4375 9.75 C-2.70433594 8.96109375 -2.97117187 8.1721875 -3.24609375 7.359375 C-3.91954708 5.25178012 -4.49150595 3.15246027 -5 1 C-3.68 1 -2.36 1 -1 1 C-0.67 0.67 -0.34 0.34 0 0 Z " fill="#82AF9C" transform="translate(83,65)"/>
<path d="M0 0 C3.73487777 0.4979837 5.81237635 0.87491756 9 3 C8.01 3.66 7.02 4.32 6 5 C6 5.66 6 6.32 6 7 C1.125 6.125 1.125 6.125 0 5 C-0.04063832 3.33382885 -0.042721 1.66611905 0 0 Z " fill="#4E695E" transform="translate(46,122)"/>
<path d="M0 0 C0.33 0 0.66 0 1 0 C1.60150376 7.09774436 1.60150376 7.09774436 -1 11 C-5.02979465 13.68652977 -7.23934031 13.40344574 -12 13 C-12 12.67 -12 12.34 -12 12 C-10.02 12 -8.04 12 -6 12 C-6 10.68 -6 9.36 -6 8 C-4.35 7.67 -2.7 7.34 -1 7 C-0.67 4.69 -0.34 2.38 0 0 Z " fill="#A1B0A8" transform="translate(231,82)"/>
<path d="M0 0 C1.79158489 -0.02696365 3.58328473 -0.04637917 5.375 -0.0625 C6.37273437 -0.07410156 7.37046875 -0.08570312 8.3984375 -0.09765625 C11 0 11 0 13 1 C13.625 3.0625 13.625 3.0625 14 5 C12.68 5 11.36 5 10 5 C10 4.34 10 3.68 10 3 C6.7 2.34 3.4 1.68 0 1 C0 0.67 0 0.34 0 0 Z " fill="#858585" transform="translate(286,75)"/>
<path d="M0 0 C0.33 0 0.66 0 1 0 C1 3.3 1 6.6 1 10 C1.66 10.33 2.32 10.66 3 11 C2.01 11.33 1.02 11.66 0 12 C-0.99 11.34 -1.98 10.68 -3 10 C-2.25 2.25 -2.25 2.25 0 0 Z " fill="#111112" transform="translate(237,83)"/>
<path d="M0 0 C0 0.99 0 1.98 0 3 C-1.98 3.33 -3.96 3.66 -6 4 C-6 3.34 -6 2.68 -6 2 C-11.28 2 -16.56 2 -22 2 C-22 1.67 -22 1.34 -22 1 C-18.70837401 0.83252349 -15.41669287 0.66615639 -12.125 0.5 C-11.18785156 0.45230469 -10.25070313 0.40460938 -9.28515625 0.35546875 C-8.38925781 0.31035156 -7.49335938 0.26523438 -6.5703125 0.21875 C-5.74289551 0.17685547 -4.91547852 0.13496094 -4.06298828 0.09179688 C-2.70965236 0.03157743 -1.35467505 0 0 0 Z " fill="#889690" transform="translate(165,149)"/>
<path d="M0 0 C1.98 0.99 1.98 0.99 4 2 C3.67 3.98 3.34 5.96 3 8 C4.98 8 6.96 8 9 8 C8.67 8.99 8.34 9.98 8 11 C6.35 10.67 4.7 10.34 3 10 C3.33 10.99 3.66 11.98 4 13 C3.01 14.485 3.01 14.485 2 16 C2 11.38 2 6.76 2 2 C1.34 2 0.68 2 0 2 C0 1.34 0 0.68 0 0 Z " fill="#828282" transform="translate(174,77)"/>
<path d="M0 0 C-0.55550695 3.59905908 -1.74887248 4.99909799 -4.5625 7.25 C-5.20316406 7.77078125 -5.84382813 8.2915625 -6.50390625 8.828125 C-6.99761719 9.21484375 -7.49132812 9.6015625 -8 10 C-8 6.70776216 -7.49481868 4.91489643 -6 2 C-3.82419059 0.57212508 -2.5999945 0 0 0 Z " fill="#5F7A6D" transform="translate(39,37)"/>
<path d="M0 0 C4.455 0.99 4.455 0.99 9 2 C9 2.33 9 2.66 9 3 C7.02 3.66 5.04 4.32 3 5 C3.66 5.66 4.32 6.32 5 7 C2.36 6.67 -0.28 6.34 -3 6 C-2.505 5.38125 -2.01 4.7625 -1.5 4.125 C0.19222773 2.16119096 0.19222773 2.16119096 0 0 Z " fill="#597468" transform="translate(132,147)"/>
<path d="M0 0 C2.13586678 3.20380017 2.23132175 4.01939967 2.125 7.6875 C2.10695312 8.49574219 2.08890625 9.30398437 2.0703125 10.13671875 C2.03550781 11.05904297 2.03550781 11.05904297 2 12 C1.67 12 1.34 12 1 12 C0.67 10.35 0.34 8.7 0 7 C-0.66 7.66 -1.32 8.32 -2 9 C-2 8.34 -2 7.68 -2 7 C-2.66 6.67 -3.32 6.34 -4 6 C-2.68 4.02 -1.36 2.04 0 0 Z " fill="#8D8D8D" transform="translate(205,82)"/>
<path d="M0 0 C2.31 0.33 4.62 0.66 7 1 C7.33 2.32 7.66 3.64 8 5 C7.01 5.33 6.02 5.66 5 6 C4.34 5.67 3.68 5.34 3 5 C2.01 5.33 1.02 5.66 0 6 C-0.33 5.34 -0.66 4.68 -1 4 C-0.34 4 0.32 4 1 4 C0.67 2.68 0.34 1.36 0 0 Z " fill="#7CB19A" transform="translate(116,170)"/>
<path d="M0 0 C5.02254631 -0.2954439 7.89542386 0.01485372 12 3 C11.01 3.495 11.01 3.495 10 4 C9.34 3.67 8.68 3.34 8 3 C8.33 4.65 8.66 6.3 9 8 C8.34 7.34 7.68 6.68 7 6 C7 5.01 7 4.02 7 3 C5.02 3 3.04 3 1 3 C0.67 2.01 0.34 1.02 0 0 Z " fill="#9D9D9D" transform="translate(259,77)"/>
<path d="M0 0 C1.485 0.99 1.485 0.99 3 2 C5.64351016 2.2421794 5.64351016 2.2421794 8.5 2.125 C9.4590625 2.10695312 10.418125 2.08890625 11.40625 2.0703125 C12.2621875 2.04710937 13.118125 2.02390625 14 2 C14.99 2 15.98 2 17 2 C17.33 2.66 17.66 3.32 18 4 C12.06 4 6.12 4 0 4 C0 2.68 0 1.36 0 0 Z " fill="#89AC9E" transform="translate(34,157)"/>
<path d="M0 0 C0.33 0 0.66 0 1 0 C1 2.64 1 5.28 1 8 C-1.375 7.6875 -1.375 7.6875 -4 7 C-4.66 6.01 -5.32 5.02 -6 4 C-5.38125 3.896875 -4.7625 3.79375 -4.125 3.6875 C-1.63473516 3.12474627 -1.63473516 3.12474627 0 0 Z " fill="#496E5E" transform="translate(36,114)"/>
<path d="M0 0 C0.66 1.32 1.32 2.64 2 4 C-3.73166369 7.66189624 -3.73166369 7.66189624 -7 8 C-7.66 7.34 -8.32 6.68 -9 6 C-8.071875 5.566875 -7.14375 5.13375 -6.1875 4.6875 C-3.52815927 3.27961373 -1.91894095 2.23876444 0 0 Z " fill="#9ABEAF" transform="translate(77,101)"/>
<path d="M0 0 C1.65 0 3.3 0 5 0 C5 0.66 5 1.32 5 2 C4.01 2 3.02 2 2 2 C2.04125 3.0725 2.0825 4.145 2.125 5.25 C2 9 2 9 0 13 C0 8.71 0 4.42 0 0 Z " fill="#B6CBC2" transform="translate(92,81)"/>
<path d="M0 0 C2.31 0.66 4.62 1.32 7 2 C6.01 2.33 5.02 2.66 4 3 C3.67 4.65 3.34 6.3 3 8 C1.68 7.67 0.36 7.34 -1 7 C-0.67 4.69 -0.34 2.38 0 0 Z " fill="#557167" transform="translate(89,27)"/>
<path d="M0 0 C3.625 -0.1875 3.625 -0.1875 7 0 C6.34 1.32 5.68 2.64 5 4 C2.69 3.67 0.38 3.34 -2 3 C-1.34 2.01 -0.68 1.02 0 0 Z " fill="#315141" transform="translate(136,150)"/>
<path d="M0 0 C0.99 0.33 1.98 0.66 3 1 C1.54744301 4.82946843 -0.42895561 6.12050295 -4 8 C-3.50168276 4.31245243 -2.89932357 2.39509338 0 0 Z " fill="#99BEAE" transform="translate(84,103)"/>
<path d="M0 0 C0 3 0 3 -2 6 C-1.34 6.66 -0.68 7.32 0 8 C-1.32 8.33 -2.64 8.66 -4 9 C-4.66 7.02 -5.32 5.04 -6 3 C-4.02 2.01 -2.04 1.02 0 0 Z " fill="#516E63" transform="translate(95,118)"/>
<path d="M0 0 C0.99 0.33 1.98 0.66 3 1 C3.33 2.65 3.66 4.3 4 6 C1 6 1 6 -2 5 C-2 3.68 -2 2.36 -2 1 C-1.34 0.67 -0.68 0.34 0 0 Z " fill="#29523F" transform="translate(24,103)"/>
<path d="M0 0 C0.99 0 1.98 0 3 0 C2.67 0.99 2.34 1.98 2 3 C1.73085992 6.35357089 1.55494196 9.70674598 1.37890625 13.06640625 C1 16 1 16 -1 18 C-1.33 17.34 -1.66 16.68 -2 16 C-1.67 15.34 -1.34 14.68 -1 14 C-0.95449619 11.81297333 -0.9615866 9.6246627 -1 7.4375 C-1.03759919 5.2919961 -1.04670095 3.14532508 -1 1 C-0.67 0.67 -0.34 0.34 0 0 Z " fill="#8E8E8E" transform="translate(304,77)"/>
<path d="M0 0 C0.99 0.33 1.98 0.66 3 1 C2.01 1.33 1.02 1.66 0 2 C-0.73323796 4.01508358 -0.73323796 4.01508358 -1 6 C-3.76264289 6.59732819 -6.16032769 7 -9 7 C-7.57277341 5.8001722 -6.13284224 4.6154424 -4.6875 3.4375 C-3.88699219 2.77621094 -3.08648437 2.11492188 -2.26171875 1.43359375 C-1.51535156 0.96050781 -0.76898438 0.48742188 0 0 Z " fill="#5E7A6B" transform="translate(35,32)"/>
<path d="M0 0 C1.32 0 2.64 0 4 0 C4.33 0.99 4.66 1.98 5 3 C4.01 4.485 4.01 4.485 3 6 C1.35 5.67 -0.3 5.34 -2 5 C-1.34 3.35 -0.68 1.7 0 0 Z " fill="#78B199" transform="translate(62,113)"/>
<path d="M0 0 C1.65 0 3.3 0 5 0 C5.66 1.32 6.32 2.64 7 4 C4.125 4.125 4.125 4.125 1 4 C0.34 3.34 -0.32 2.68 -1 2 C-0.67 1.34 -0.34 0.68 0 0 Z " fill="#334F44" transform="translate(51,125)"/>
<path d="M0 0 C1.32 1.32 2.64 2.64 4 4 C-0.455 4.495 -0.455 4.495 -5 5 C-5 4.01 -5 3.02 -5 2 C-4.360625 1.855625 -3.72125 1.71125 -3.0625 1.5625 C-1.02454854 1.18992819 -1.02454854 1.18992819 0 0 Z " fill="#8EBEA8" transform="translate(75,121)"/>
<path d="M0 0 C2.95409701 1.37154504 5.44008376 2.98863724 8 5 C7.67 5.66 7.34 6.32 7 7 C6.34 6.67 5.68 6.34 5 6 C4.67 6.66 4.34 7.32 4 8 C1.84622436 5.37801226 0.59927826 3.35595828 0 0 Z " fill="#9A9A9A" transform="translate(239,81)"/>
<path d="M0 0 C-0.99 0.495 -0.99 0.495 -2 1 C-2.33 1.66 -2.66 2.32 -3 3 C-3.53625 2.835 -4.0725 2.67 -4.625 2.5 C-7.45886009 1.90339788 -10.1119806 1.9343632 -13 2 C-12 0 -12 0 -10.4375 -0.6875 C-6.83532854 -1.14931685 -3.58833068 -0.5382496 0 0 Z " fill="#7C7C7C" transform="translate(391,78)"/>
<path d="M0 0 C0.99 0.66 1.98 1.32 3 2 C2.01 3.32 1.02 4.64 0 6 C-1.32 5.67 -2.64 5.34 -4 5 C-4 4.01 -4 3.02 -4 2 C-2.68 2 -1.36 2 0 2 C0 1.34 0 0.68 0 0 Z " fill="#2F5143" transform="translate(33,113)"/>
<path d="M0 0 C0.66 0 1.32 0 2 0 C2 0.66 2 1.32 2 2 C2.99 2.33 3.98 2.66 5 3 C4.67 4.65 4.34 6.3 4 8 C1.10067643 5.60490662 0.49831724 3.68754757 0 0 Z " fill="#4D675C" transform="translate(15,98)"/>
<path d="M0 0 C2.21399303 3.79541663 3.00980198 7.75629421 4 12 C3.01 12 2.02 12 1 12 C0.63597631 10.56496445 0.28413409 9.12683494 -0.0625 7.6875 C-0.25972656 6.88699219 -0.45695312 6.08648437 -0.66015625 5.26171875 C-1 3 -1 3 0 0 Z " fill="#6B7F75" transform="translate(23,89)"/>
<path d="M0 0 C0.66 0 1.32 0 2 0 C2.66 1.65 3.32 3.3 4 5 C2.68 5.33 1.36 5.66 0 6 C-0.33 5.34 -0.66 4.68 -1 4 C-2.65 4 -4.3 4 -6 4 C-5.38125 3.71125 -4.7625 3.4225 -4.125 3.125 C-1.86674235 2.06279958 -1.86674235 2.06279958 0 0 Z " fill="#C8C8C8" transform="translate(324,89)"/>
<path d="M0 0 C0.33 0 0.66 0 1 0 C1.22786458 1.98567708 1.45572917 3.97135417 1.68359375 5.95703125 C1.97170735 8.19396393 1.97170735 8.19396393 3 11 C2.01 11.33 1.02 11.66 0 12 C-1.53166168 7.91556885 -0.63081652 4.20544343 0 0 Z " fill="#939393" transform="translate(210,83)"/>
<path d="M0 0 C0.33 0 0.66 0 1 0 C1.66 2.97 2.32 5.94 3 9 C2.01 9.495 2.01 9.495 1 10 C0.01 9.34 -0.98 8.68 -2 8 C-1.34 5.36 -0.68 2.72 0 0 Z " fill="#878787" transform="translate(192,85)"/>
<path d="M0 0 C1.21386936 3.64160808 0.6674695 4.33165469 -0.9375 7.6875 C-1.31777344 8.49574219 -1.69804687 9.30398437 -2.08984375 10.13671875 C-2.39019531 10.75160156 -2.69054687 11.36648437 -3 12 C-3.66 12 -4.32 12 -5 12 C-4.54738642 10.56068883 -4.08767021 9.12361001 -3.625 7.6875 C-3.24214844 6.48673828 -3.24214844 6.48673828 -2.8515625 5.26171875 C-2 3 -2 3 0 0 Z " fill="#5E776E" transform="translate(18,49)"/>
<path d="M0 0 C2.31 1.98 4.62 3.96 7 6 C6.01 6.66 5.02 7.32 4 8 C1.10067643 5.60490662 0.49831724 3.68754757 0 0 Z " fill="#93BDAA" transform="translate(103,152)"/>
<path d="M0 0 C4.875 4.75 4.875 4.75 6 7 C5.01 7.33 4.02 7.66 3 8 C1.49440461 6.03617993 0.10868317 4.21736634 -1 2 C-0.67 1.34 -0.34 0.68 0 0 Z " fill="#A2C4B5" transform="translate(88,135)"/>
<path d="M0 0 C0.33 0.66 0.66 1.32 1 2 C1.66 2.33 2.32 2.66 3 3 C3.625 5.0625 3.625 5.0625 4 7 C1.03 6.505 1.03 6.505 -2 6 C-1.34 4.02 -0.68 2.04 0 0 Z " fill="#A4A4A4" transform="translate(345,82)"/>
<path d="M0 0 C0.99 0.495 0.99 0.495 2 1 C2 2.32 2 3.64 2 5 C2.66 5 3.32 5 4 5 C4 5.99 4 6.98 4 8 C4.66 8.33 5.32 8.66 6 9 C5.34 9 4.68 9 4 9 C3.67 9.66 3.34 10.32 3 11 C2.49384702 9.73160474 1.99530901 8.46016898 1.5 7.1875 C1.2215625 6.47980469 0.943125 5.77210937 0.65625 5.04296875 C0 3 0 3 0 0 Z " fill="#6A8076" transform="translate(102,121)"/>
<path d="M0 0 C2.31 0.33 4.62 0.66 7 1 C7 1.99 7 2.98 7 4 C5.02 4 3.04 4 1 4 C0.67 2.68 0.34 1.36 0 0 Z " fill="#909090" transform="translate(332,91)"/>
<path d="M0 0 C-0.33 1.65 -0.66 3.3 -1 5 C-1.99 5 -2.98 5 -4 5 C-4 4.34 -4 3.68 -4 3 C-4.66 3 -5.32 3 -6 3 C-4.46624489 -0.06751022 -3.38927784 0 0 0 Z " fill="#656565" transform="translate(203,89)"/>
<path d="M0 0 C0.33 0 0.66 0 1 0 C1 3.63 1 7.26 1 11 C0.01 11.33 -0.98 11.66 -2 12 C-2.33 11.01 -2.66 10.02 -3 9 C-2.34 9 -1.68 9 -1 9 C-0.67 6.03 -0.34 3.06 0 0 Z " fill="#A7A7A7" transform="translate(251,83)"/>
<path d="M0 0 C0.99 0.33 1.98 0.66 3 1 C2.67 5.95 2.34 10.9 2 16 C1.67 16 1.34 16 1 16 C0.67 10.72 0.34 5.44 0 0 Z " fill="#8A8A8A" transform="translate(316,77)"/>
<path d="M0 0 C0.33 0.66 0.66 1.32 1 2 C-0.1312477 4.92238988 -1.59289861 6.99408218 -4 9 C-4.66 9 -5.32 9 -6 9 C-4.47291037 5.56404834 -2.40072955 2.88087546 0 0 Z " fill="#667C72" transform="translate(25,40)"/>
<path d="M0 0 C0.99 0.33 1.98 0.66 3 1 C2.67 2.65 2.34 4.3 2 6 C0.68 5.34 -0.64 4.68 -2 4 C-1.34 2.68 -0.68 1.36 0 0 Z " fill="#345547" transform="translate(45,28)"/>
<path d="M0 0 C2.31 0 4.62 0 7 0 C6.67 0.99 6.34 1.98 6 3 C4.35 3.33 2.7 3.66 1 4 C0.67 2.68 0.34 1.36 0 0 Z " fill="#2F4E40" transform="translate(121,145)"/>
<path d="M0 0 C1.32 0.33 2.64 0.66 4 1 C4 1.66 4 2.32 4 3 C4.99 3.33 5.98 3.66 7 4 C7 4.99 7 5.98 7 7 C5.83040013 6.02433888 4.66438823 5.044375 3.5 4.0625 C2.8503125 3.51722656 2.200625 2.97195312 1.53125 2.41015625 C1.0259375 1.94480469 0.520625 1.47945312 0 1 C0 0.67 0 0.34 0 0 Z " fill="#9EC2B6" transform="translate(71,131)"/>
<path d="M0 0 C2.88575819 0.39803561 3.82189513 0.79009069 5.75 3.0625 C6.1625 3.701875 6.575 4.34125 7 5 C6.01 5.495 6.01 5.495 5 6 C5 5.34 5 4.68 5 4 C2.525 3.01 2.525 3.01 0 2 C0 1.34 0 0.68 0 0 Z " fill="#92B8A7" transform="translate(115,166)"/>
<path d="M0 0 C2 2 2 2 2 5 C1.01 5.33 0.02 5.66 -1 6 C-1.33 4.35 -1.66 2.7 -2 1 C-1.34 0.67 -0.68 0.34 0 0 Z " fill="#2B5241" transform="translate(118,139)"/>
<path d="M0 0 C1.32 0 2.64 0 4 0 C3.67 1.65 3.34 3.3 3 5 C1.68 4.67 0.36 4.34 -1 4 C-0.67 2.68 -0.34 1.36 0 0 Z " fill="#2A5040" transform="translate(112,133)"/>
<path d="M0 0 C2.97 0.495 2.97 0.495 6 1 C5.01 2.485 5.01 2.485 4 4 C2.35 3.67 0.7 3.34 -1 3 C-0.67 2.01 -0.34 1.02 0 0 Z " fill="#79B197" transform="translate(69,120)"/>
<path d="M0 0 C1.5 1.3125 1.5 1.3125 3 3 C3 3.99 3 4.98 3 6 C3.66 6.33 4.32 6.66 5 7 C4.01 7 3.02 7 2 7 C-0.1875 4 -0.1875 4 -2 1 C-1.34 0.67 -0.68 0.34 0 0 Z " fill="#90B8A8" transform="translate(62,117)"/>
<path d="M0 0 C0.33 0 0.66 0 1 0 C1 1.98 1 3.96 1 6 C0.01 6.495 0.01 6.495 -1 7 C-1.66 6.34 -2.32 5.68 -3 5 C-2.03114628 3.31503702 -1.03013277 1.64821244 0 0 Z " fill="#080808" transform="translate(208,79)"/>
<path d="M0 0 C0.66 0 1.32 0 2 0 C2.33 1.32 2.66 2.64 3 4 C2.34 4 1.68 4 1 4 C1 4.99 1 5.98 1 7 C0.34 7 -0.32 7 -1 7 C-0.67 4.69 -0.34 2.38 0 0 Z " fill="#616161" transform="translate(347,77)"/>
<path d="M0 0 C-0.33 1.98 -0.66 3.96 -1 6 C-1.66 5.01 -2.32 4.02 -3 3 C-3.99 3.33 -4.98 3.66 -6 4 C-5.67 3.01 -5.34 2.02 -5 1 C-2 0 -2 0 0 0 Z " fill="#646464" transform="translate(382,79)"/>
<path d="M0 0 C0.97608217 2.92824652 1.08226668 4.95613276 1 8 C0.01 7.67 -0.98 7.34 -2 7 C-1.125 1.125 -1.125 1.125 0 0 Z " fill="#2E4F41" transform="translate(99,32)"/>
<path d="" fill="#FFFFFF" transform="translate(0,0)"/>
<path d="" fill="#FFFFFF" transform="translate(0,0)"/>
<path d="" fill="#FFFFFF" transform="translate(0,0)"/>
</svg>
